<svg xmlns="http://www.w3.org/2000/svg" xmlns:xlink="http://www.w3.org/1999/xlink"
    viewBox="0 0 100 100" width="100" height="20" preserveAspectRatio="none">

    <polygon points="20 38 13.8 59 16.4 100 10 75 3.6 100 6.2 59 0 38 7.4 38 10 0 12.6 38 20 38" style="fill:#ffff00;" />
    <polygon points="40 38 33.8 59 36.4 100 30 75 23.6 100 26.2 59 20 38 27.4 38 30 0 32.6 38 30 38" style="fill:#ffff00;" />
    <polygon points="60 38 53.8 59 56.4 100 50 75 43.6 100 46.2 59 40 38 47.4 38 50 0 52.6 38 50 38" style="fill:#ffff00;" />
    <polygon points="80 38 73.8 59 76.4 100 70 75 63.6 100 66.2 59 60 38 67.4 38 70 0 72.6 38 70 38" style="fill:#ffff00;" />
    <polygon points="100 38 93.8 59 96.4 100 90 75 83.6 100 86.2 59 80 38 87.4 38 90 0 92.6 38 90 38" style="fill:#ffff00;" />

</svg>
